<?xml version="1.0" encoding="UTF-8" standalone="no"?>
<svg
   xmlns:dc="http://purl.org/dc/elements/1.1/"
   xmlns:cc="http://creativecommons.org/ns#"
   xmlns:rdf="http://www.w3.org/1999/02/22-rdf-syntax-ns#"
   xmlns:svg="http://www.w3.org/2000/svg"
   xmlns="http://www.w3.org/2000/svg"
   xmlns:sodipodi="http://sodipodi.sourceforge.net/DTD/sodipodi-0.dtd"
   xmlns:inkscape="http://www.inkscape.org/namespaces/inkscape"
   width="180pt"
   height="119pt"
   viewBox="0 0 180 119"
   version="1.1"
   id="svg2"
   inkscape:version="0.47 r22583"
   sodipodi:docname="logo.svg">
  <metadata
     id="metadata96">
    <rdf:RDF>
      <cc:Work
         rdf:about="">
        <dc:format>image/svg+xml</dc:format>
        <dc:type
           rdf:resource="http://purl.org/dc/dcmitype/StillImage" />
        <dc:title></dc:title>
      </cc:Work>
    </rdf:RDF>
  </metadata>
  <defs
     id="defs94">
    <inkscape:perspective
       sodipodi:type="inkscape:persp3d"
       inkscape:vp_x="0 : 74.375 : 1"
       inkscape:vp_y="0 : 1000 : 0"
       inkscape:vp_z="225 : 74.375 : 1"
       inkscape:persp3d-origin="112.5 : 49.583333 : 1"
       id="perspective98" />
  </defs>
  <sodipodi:namedview
     pagecolor="#ffffff"
     bordercolor="#666666"
     borderopacity="1"
     objecttolerance="10"
     gridtolerance="10"
     guidetolerance="10"
     inkscape:pageopacity="0"
     inkscape:pageshadow="2"
     inkscape:window-width="1440"
     inkscape:window-height="845"
     id="namedview92"
     showgrid="false"
     inkscape:zoom="3.9193277"
     inkscape:cx="162.12037"
     inkscape:cy="74.375"
     inkscape:window-x="-4"
     inkscape:window-y="-3"
     inkscape:window-maximized="1"
     inkscape:current-layer="svg2" />
  <path
     fill="#ffefd6"
     d=" M 0.00 0.00 L 180.00 0.00 L 180.00 119.00 L 0.00 119.00 L 0.00 0.00 Z"
     id="path4"
     style="fill:none" />
  <path
     fill="#2e196f"
     d=" M 80.66 17.30 C 101.66 17.07 123.06 22.55 140.54 34.40 C 150.20 41.16 158.99 50.63 161.28 62.55 C 163.41 72.78 158.88 83.43 151.31 90.30 C 140.56 100.17 126.05 104.76 111.83 106.57 C 88.61 109.02 64.34 104.85 44.12 92.88 C 33.44 86.42 23.64 77.23 19.70 65.07 C 30.13 78.96 45.30 88.52 61.45 94.43 C 79.32 100.89 98.97 103.56 117.72 99.66 C 127.75 97.39 138.03 92.74 143.85 83.87 C 148.57 76.76 148.66 67.41 145.33 59.72 C 140.40 48.17 130.74 39.35 120.32 32.72 C 108.27 25.04 94.64 20.07 80.66 17.30 Z"
     id="path6" />
  <text
     xml:space="preserve"
     style="font-size:4.80000019px;font-style:normal;font-weight:bold;opacity:0.97879998;fill:#ff0000;fill-opacity:1;stroke:none;font-family:Bitstream Vera Sans;-inkscape-font-specification:Andale Mono Bold"
     x="90.015442"
     y="50.825043"
     id="text2904"><tspan
       sodipodi:role="line"
       id="tspan2906"
       x="90.015442"
       y="50.825043"
       style="font-size:12.80000019px;font-style:normal;font-variant:normal;font-weight:bold;font-stretch:normal;text-align:center;text-anchor:middle;font-family:Arial;-inkscape-font-specification:Arial Bold">Ines Kröner</tspan><tspan
       sodipodi:role="line"
       x="90.015442"
       y="66.82505"
       style="font-size:11.2;font-style:normal;font-variant:normal;font-weight:bold;font-stretch:normal;text-align:center;text-anchor:middle;fill:#000000;font-family:Arial;-inkscape-font-specification:Arial Bold"
       id="tspan2922">Consulting</tspan><tspan
       sodipodi:role="line"
       x="90.015442"
       y="78.101479"
       style="font-size:8px;font-style:normal;font-variant:normal;font-weight:bold;font-stretch:normal;text-align:center;text-anchor:middle;fill:#000000;font-family:Arial;-inkscape-font-specification:Arial Bold"
       id="tspan2920">Competence in PCB</tspan></text>
</svg>
